<svg height="512pt" viewBox="0 -116 512.001 512" width="512pt" xmlns="http://www.w3.org/2000/svg"><path d="m447.585938 280.980469c30.332031 0 54.921874-24.589844 54.921874-54.921875 0-108.433594-87.898437-196.332032-196.332031-196.332032-108.429687 0-196.332031 87.898438-196.332031 196.332032 0 30.332031-24.589844 54.921875-54.921875 54.921875zm0 0" fill="#efd176"/><path d="m261.015625 110.707031 55.039063-55.035156c14.164062-14.164063 38.40625-6.609375 42.019531 13.09375l1.929687 10.53125c1.953125 10.636719 12.660156 17.265625 23.050782 14.265625l5.148437-1.488281c19.628906-5.667969 37.332031 13.453125 30.175781 32.585937l-13.265625 35.453125h-144.097656zm0 0" fill="#89d47f"/><path d="m270.90625 5.765625c-11.070312 0-21.464844 2.652344-30.460938 7.300781-2.339843 1.207032-5.183593.699219-7.054687-1.15625-8.011719-7.9375-19.269531-12.605468-31.609375-11.8242185-20.390625 1.2851565-36.96875 17.7617185-38.375 38.1406245-1.65625 24.042969 17.355469 44.058594 41.042969 44.058594 2.746093 0 5.429687-.273437 8.023437-.785156 8.566406 21.933594 31.488282 37.636719 58.433594 37.636719 34.261719 0 62.035156-25.378907 62.035156-56.683594 0-31.308594-27.777344-56.6875-62.035156-56.6875zm0 0" fill="#e3748e"/><path d="m340.507812 173.476562c0-29.207031 23.675782-52.882812 52.882813-52.882812s52.882813 23.675781 52.882813 52.882812c0 1.125-.046876 2.238282-.117188 3.347657 4.148438-1.046875 8.488281-1.605469 12.960938-1.605469 29.207031 0 52.882812 23.675781 52.882812 52.878906 0 29.207032-23.675781 52.882813-52.882812 52.882813h-118.609376zm0 0" fill="#d2996f"/><path d="m457.910156 251.445312c-1.917968 0-3.839844-.730468-5.304687-2.195312-2.925781-2.929688-2.925781-7.679688 0-10.609375l15.097656-15.089844c2.929687-2.933593 7.675781-2.929687 10.605469 0 2.929687 2.925781 2.929687 7.675781 0 10.605469l-15.09375 15.089844c-1.464844 1.46875-3.386719 2.199218-5.304688 2.199218zm0 0" fill="#c47b46"/><path d="m427.03125 232.019531c-1.921875 0-3.839844-.734375-5.304688-2.199219-2.929687-2.929687-2.929687-7.675781 0-10.605468l7.253907-7.253906c2.929687-2.929688 7.675781-2.929688 10.605469 0 2.929687 2.929687 2.929687 7.675781 0 10.605468l-7.253907 7.253906c-1.464843 1.464844-3.382812 2.199219-5.300781 2.199219zm0 0" fill="#c47b46"/><path d="m54.921875 280.980469c-30.332031 0-54.921875-24.589844-54.921875-54.921875 0-108.433594 87.902344-196.332032 196.332031-196.332032 108.429688 0 196.332031 87.898438 196.332031 196.332032 0 30.332031 24.589844 54.921875 54.921876 54.921875zm0 0" fill="#efd176"/><path d="m165.238281 32.1875c-93.652343 14.902344-165.238281 96.019531-165.238281 193.871094 0 30.332031 24.589844 54.921875 54.921875 54.921875h134.855469c-65.867188-57.875-59.265625-197.046875-24.539063-248.792969zm0 0" fill="#e3b72e"/><path d="m69.433594 236.398438c0 4.007812-3.25 7.257812-7.257813 7.257812-4.003906 0-7.253906-3.25-7.253906-7.257812 0-4.003907 3.25-7.253907 7.253906-7.253907 4.007813 0 7.257813 3.25 7.257813 7.253907zm0 0" fill="#efd176"/><g fill="#e3b72e"><path d="m175.65625 66.820312c0 4.007813-3.246094 7.253907-7.253906 7.253907-4.007813 0-7.253906-3.246094-7.253906-7.253907 0-4.003906 3.246093-7.253906 7.253906-7.253906 4.007812 0 7.253906 3.25 7.253906 7.253906zm0 0"/><path d="m268.269531 244.359375c0 4.007813-3.246093 7.253906-7.253906 7.253906-4.003906 0-7.253906-3.246093-7.253906-7.253906 0-4.003906 3.25-7.253906 7.253906-7.253906 4.007813 0 7.253906 3.25 7.253906 7.253906zm0 0"/><path d="m340.191406 229.144531c0 4.007813-3.246094 7.253907-7.253906 7.253907-4.003906 0-7.253906-3.246094-7.253906-7.253907 0-4.007812 3.25-7.253906 7.253906-7.253906 4.007812 0 7.253906 3.246094 7.253906 7.253906zm0 0"/></g><path d="m137.089844 178.652344c0-15.238282-15.511719-27.585938-34.640625-27.585938-19.132813 0-34.640625 12.347656-34.640625 27.585938 0 15.234375 15.507812 27.585937 34.640625 27.585937 19.128906 0 34.640625-12.351562 34.640625-27.585937zm0 0" fill="#fff"/><path d="m324.855469 178.652344c0-15.238282-15.507813-27.585938-34.640625-27.585938-19.128906 0-34.640625 12.347656-34.640625 27.585938 0 15.234375 15.511719 27.585937 34.640625 27.585937 19.132812 0 34.640625-12.351562 34.640625-27.585937zm0 0" fill="#fff"/><path d="m108.238281 153.578125c-4.140625 0-7.5-3.355469-7.5-7.5v-14.867187c0-4.144532 3.359375-7.5 7.5-7.5 4.144531 0 7.5 3.355468 7.5 7.5v14.867187c0 4.144531-3.355469 7.5-7.5 7.5zm0 0" fill="#4e5660"/><path d="m224.261719 157.457031c0-17.261719-12.503907-31.253906-27.929688-31.253906s-27.929687 13.992187-27.929687 31.253906c0 17.257813 12.503906 31.25 27.929687 31.25s27.929688-13.992187 27.929688-31.25zm0 0" fill="#4e5660"/><path d="m284.425781 153.578125c-4.144531 0-7.5-3.355469-7.5-7.5v-14.867187c0-4.144532 3.355469-7.5 7.5-7.5 4.140625 0 7.5 3.355468 7.5 7.5v14.867187c0 4.144531-3.359375 7.5-7.5 7.5zm0 0" fill="#4e5660"/></svg>